<?xml version="1.0" encoding="utf-8"?>
<!-- Generator: Adobe Illustrator 28.1.0, SVG Export Plug-In . SVG Version: 6.00 Build 0)  -->
<svg version="1.1" id="Layer_1" xmlns="http://www.w3.org/2000/svg" xmlns:xlink="http://www.w3.org/1999/xlink" x="0px" y="0px"
	 viewBox="0 0 640 640" style="enable-background:new 0 0 640 640;" xml:space="preserve">
<style type="text/css">
	.st0{fill:#F5F5DC;}
</style>
<path class="st0" d="M272,112c0-26.5,21.5-48,48-48s48,21.5,48,48s-21.5,48-48,48S272,138.5,272,112z M272,528c0-26.5,21.5-48,48-48
	s48,21.5,48,48s-21.5,48-48,48S272,554.5,272,528z M112,272c26.5,0,48,21.5,48,48s-21.5,48-48,48s-48-21.5-48-48S85.5,272,112,272z
	 M480,320c0-26.5,21.5-48,48-48s48,21.5,48,48s-21.5,48-48,48S480,346.5,480,320z M139,433.1c18.8-18.8,49.1-18.8,67.9,0
	c18.8,18.8,18.8,49.1,0,67.9s-49.1,18.8-67.9,0S120.2,451.9,139,433.1z M139,139c18.8-18.8,49.1-18.8,67.9,0s18.8,49.1,0,67.9
	s-49.1,18.8-67.9,0S120.2,157.8,139,139z M501,433.1c18.8,18.8,18.8,49.1,0,67.9s-49.1,18.8-67.9,0c-18.8-18.8-18.8-49.1,0-67.9
	C451.9,414.3,482.2,414.3,501,433.1z"/>
</svg>
