<?xml version="1.0" encoding="UTF-8"?>
<svg id="Layer_2" data-name="Layer 2" xmlns="http://www.w3.org/2000/svg" viewBox="0 0 165.75 135.77">
  <defs>
    <style>
      .cls-1 {
        fill: #010101;
        stroke-width: 0px;
      }
    </style>
  </defs>
  <g id="Layer_2-2" data-name="Layer 2">
    <path class="cls-1" d="M5.12,91.58h154.73c2.58-18.62-12.07-18.2-25.83-20.64-41.35-4.71-86.6-7.71-126.07,5.97h0c-3.87,3.15-2.67,10.32-2.83,14.67h0ZM18.63.4c3.99,1.31,135.67-3.5,134.47,3.56,7.03,3.4,2.24,60.07,3.56,66.38,9.34,4.6,9.29,15.67,9.02,24.64h0c-.19.4-.09,37.4-.11,37.85.09,4.14-6.32,2.57-8.74,2.86-8.68-5.86-1.65-16.88-22.84-16.28,0-.01-108.01.14-108.02.13-8.72-.72-11.95,7.04-14.19,14.19h0c-.74,3.24-7.35,1.58-9.52,1.96-1.57,0-1.86-1.28-1.86-2.86,0-4.13-.41-13.03-.41-35.52,0-10.57,1.28-24.34,6.49-26.54,0,0,0-58.33,0-58.33C6.38,5.88,12.12.32,18.63.4ZM144.5,6.11H18.63c-1.73,0-3.38.68-4.59,1.87-3.76-.2-1.09,57.83-1.84,60.03,2.88-.88,5.76-1.2,8.8-1.73-.69-12.38-.94-29.78,15.87-30.05,21.07.83,46.17-6.81,42.69,24.92.95-.01,1.9-.01,2.86-.01-3.47-31.73,21.66-24.07,42.69-24.91,16.68.25,16.59,17.53,15.86,29.86,3.24.55,6.78.93,9.96,1.8V12.55c.05-3.46-2.96-6.49-6.43-6.44h0ZM57.9,62.07c5.28-.39,10.63-.68,15.96-.81.01-6.25,1.25-15.98-6.29-18.56-1.63-1.51-28.17-.5-30.7-.77-12.26-.23-10.19,15.39-10.17,23.44,10.35-1.48,20.73-2.69,31.2-3.3ZM88.12,61.17c15.7.39,31.87,1.09,47.15,4.02.01-8.07,2.07-23.47-10.17-23.27-2.64.27-28.93-.75-30.69.77-7.48,2.54-6.35,12.27-6.29,18.48h0ZM159.86,97.3H5.12v32.66h1.94c2.72-9,8.69-16.91,19.06-16.15,0,0,107.87-.14,107.87-.14,12.05-.89,21.28,4.42,24.83,16.27h1.03v-32.65h.03Z"/>
  </g>
</svg>