<?xml version="1.0" encoding="UTF-8"?>
<svg id="Layer_2" data-name="Layer 2" xmlns="http://www.w3.org/2000/svg" viewBox="0 0 126.92 135.98">
  <defs>
    <style>
      .cls-1 {
        fill: #010101;
        stroke-width: 0px;
      }
    </style>
  </defs>
  <g id="Layer_2-2" data-name="Layer 2">
    <g>
      <path class="cls-1" d="M109.6,70.46h-38.64l-28.63-18.77c-3.41-2.08-7.32-3.17-11.31-3.17h-13.41C7.97,48.51.13,56.35.13,65.99v50.13c0,10.95,8.91,19.86,19.86,19.86h90.94c8.82,0,15.99-7.17,15.99-15.99v-32.22c0-9.55-7.77-17.31-17.31-17.31ZM5.13,65.99c0-6.88,5.6-12.48,12.48-12.48h13.41c3.07,0,6.08.84,8.63,2.4l22.19,14.55H5.13v-4.47ZM5.13,116.12v-40.66h24.02v55.52h-9.16c-8.2,0-14.86-6.67-14.86-14.86ZM62.85,130.98h-28.7v-55.52h28.7v55.52ZM67.85,75.46h28.19v55.52h-28.19v-55.52ZM121.92,119.99c0,6.06-4.93,10.99-10.99,10.99h-9.88v-55.52h8.56c6.79,0,12.31,5.52,12.31,12.31v32.22Z"/>
      <path class="cls-1" d="M17.69,35.38C7.94,35.38,0,27.45,0,17.69S7.94,0,17.69,0s17.69,7.94,17.69,17.69-7.94,17.69-17.69,17.69ZM17.69,5c-7,0-12.69,5.69-12.69,12.69s5.69,12.69,12.69,12.69,12.69-5.69,12.69-12.69-5.69-12.69-12.69-12.69Z"/>
      <path class="cls-1" d="M85.43,46.16h-5c0-11.53-5.47-16.39-11.25-21.54-5.64-5.02-11.47-10.2-11.47-21.1h5c0,8.65,4.54,12.69,9.79,17.36,6.06,5.39,12.93,11.5,12.93,25.27Z"/>
      <path class="cls-1" d="M118.21,46.16h-5c0-11.53-5.47-16.39-11.25-21.54-5.64-5.02-11.47-10.2-11.47-21.1h5c0,8.65,4.54,12.69,9.79,17.36,6.06,5.39,12.93,11.5,12.93,25.27Z"/>
    </g>
  </g>
</svg>